<?xml version="1.0" encoding="utf-8"?>
<!-- Generator: Adobe Illustrator 27.5.0, SVG Export Plug-In . SVG Version: 6.00 Build 0)  -->
<svg version="1.1" xmlns="http://www.w3.org/2000/svg" xmlns:xlink="http://www.w3.org/1999/xlink" x="0px" y="0px"
	 viewBox="0 0 750 500" style="enable-background:new 0 0 750 500;" xml:space="preserve">
<g id="BACKGROUND">
	<rect style="fill:#F9FBFC;" width="750" height="500"/>
</g>
<g id="OBJECTS">
	<g>
		<g>
			<g>
				<rect x="373.001" y="203.833" style="fill:#8338EA;" width="4" height="17.732"/>
			</g>
			<g>
				<path style="fill:#8338EA;" d="M582.629,220.565h-4v-85.199c0-1.802-1.466-3.268-3.268-3.268H419.34v-4h156.022
					c4.008,0,7.268,3.26,7.268,7.268V220.565z"/>
			</g>
			<g>
				<path style="fill:#8338EA;" d="M171.148,220.565h-4v-85.199c0-4.008,3.26-7.268,7.268-7.268h156.246v4H174.416
					c-1.802,0-3.268,1.466-3.268,3.268V220.565z"/>
			</g>
			<g>
				<g>
					<rect x="344.589" y="190.027" style="fill:#8338EA;" width="60.823" height="8.494"/>
					<path style="fill:#8338EA;" d="M375.001,169.437c-21.692,0-39.34-17.647-39.34-39.339c0-21.692,17.647-39.34,39.34-39.34
						c21.691,0,39.339,17.648,39.339,39.34C414.34,151.79,396.693,169.437,375.001,169.437z"/>
					<path style="fill:#BEB2E9;" d="M375.001,163.767c-18.565,0-33.669-15.104-33.669-33.669s15.104-33.669,33.669-33.669
						c18.565,0,33.669,15.104,33.669,33.669S393.566,163.767,375.001,163.767z"/>
					<g>
						<defs>
							<path id="SVGID_1_" d="M375.001,163.767c-18.565,0-33.669-15.104-33.669-33.669s15.104-33.669,33.669-33.669
								c18.565,0,33.669,15.104,33.669,33.669S393.566,163.767,375.001,163.767z"/>
						</defs>
						<clipPath id="SVGID_00000017491489212692847480000009009983286277772990_">
							<use xlink:href="#SVGID_1_"  style="overflow:visible;"/>
						</clipPath>
						<path style="clip-path:url(#SVGID_00000017491489212692847480000009009983286277772990_);fill:#F4B298;" d="M409.698,160.645
							c-0.469-2.005-1.172-4.145-2.257-6.065c-1.083-1.916-2.565-3.629-4.596-4.672c-3.928-2.008-8.6-2.833-12.586-3.381
							c-1.991-0.272-3.813-0.472-5.259-0.697c-0.722-0.112-1.351-0.231-1.847-0.36c-0.496-0.127-0.859-0.276-1.024-0.384
							l-0.002-0.001l-0.103-0.117c-0.072-0.112-0.156-0.334-0.207-0.624c-0.053-0.289-0.078-0.641-0.078-1.009
							c0-0.686,0.084-1.426,0.171-1.983c0.043-0.279,0.086-0.513,0.118-0.675l0.038-0.186l0.013-0.059l0.591-2.59l-2.094,1.635
							c-1.946,1.527-3.992,2.358-5.576,2.349c-1.589,0.009-3.618-0.811-5.563-2.347l-2.092-1.644l0.586,2.595l0.013,0.059
							c0.063,0.289,0.325,1.636,0.323,2.84c0.001,0.492-0.046,0.958-0.137,1.28c-0.045,0.161-0.099,0.285-0.147,0.361l-0.101,0.117
							c-0.164,0.108-0.528,0.257-1.023,0.384c-0.871,0.229-2.138,0.417-3.624,0.608c-4.471,0.586-10.923,1.2-16.068,3.831
							c-2.033,1.042-3.516,2.755-4.601,4.671c-1.627,2.88-2.404,6.256-2.801,8.927c-0.394,2.67-0.394,4.636-0.394,4.668v0.945
							h71.261v-0.945C410.631,168.131,410.633,164.653,409.698,160.645z"/>
						<path style="clip-path:url(#SVGID_00000017491489212692847480000009009983286277772990_);fill:#FFC8AF;" d="M381.76,140.951
							l-0.014,0.011c0,0-0.001,0.001-0.002,0.001L381.76,140.951z M385.48,112.286c-2.512-3.364-6.183-5.517-10.478-5.511
							c-4.29-0.006-7.961,2.147-10.475,5.511c-2.523,3.367-3.955,7.94-3.957,12.959c0,3.344,0.904,6.469,2.313,9.156
							c1.41,2.687,3.323,4.94,5.388,6.563c2.181,1.708,4.523,2.742,6.731,2.751c2.211-0.009,4.558-1.054,6.739-2.749l0.005-0.004
							c2.064-1.628,3.973-3.884,5.38-6.57c1.406-2.686,2.306-5.808,2.306-9.147C389.43,120.226,388.001,115.653,385.48,112.286z"/>
						<path style="clip-path:url(#SVGID_00000017491489212692847480000009009983286277772990_);fill:#03254E;" d="M387.559,107.653
							c-0.626-0.702-2.605-0.552-2.605-0.552s-0.977-2.583-1.9-3.017c-2.146-1.01-4.844-1.601-8.221-1.601
							c-23.165,0-14.096,25.801-14.096,25.801c-0.012-0.295-0.022-0.581-0.024-0.842c0,0,0.555-6.037,4.945-9.675l-1.574,3.69
							c0,0,14.19-2.921,18.589-9.233c2.41,3.391,5.832,9.407,6.437,15.294c-0.003,0.24-0.012,0.499-0.023,0.766
							C389.087,128.284,394.45,115.383,387.559,107.653z"/>
						<g style="clip-path:url(#SVGID_00000017491489212692847480000009009983286277772990_);">
							<polygon style="fill:#C3D3DD;" points="386.487,146.601 385.095,145.17 383.069,145.17 375.557,149.344 375.557,166.155 
								386.01,165.321 388.394,147.118 							"/>
							<polygon style="fill:#F0F5F7;" points="376.219,148.297 381.797,144.031 381.797,142.031 384.817,145.687 379.571,152.682 
															"/>
							<polygon style="fill:#03254E;" points="376.219,148.297 375,148.297 375,165.387 378.895,165.387 376.007,150.947 
								376.892,149.177 							"/>
							<path style="fill:#03254E;" d="M384.817,145.687l-1.368-1.656l4.746,1.895c0,0,6.518,0.954,9.618,1.431
								c3.1,0.477,6.955,1.789,6.955,1.789s-2.663,14.149-9.141,18.521c-6.478,4.372-15.938,4.372-15.938,4.372L384.817,145.687z"/>
						</g>
						<g style="clip-path:url(#SVGID_00000017491489212692847480000009009983286277772990_);">
							<polygon style="fill:#C3D3DD;" points="363.514,146.601 364.905,145.17 366.932,145.17 374.444,149.344 374.444,166.155 
								363.991,165.321 361.607,147.118 							"/>
							<polygon style="fill:#F0F5F7;" points="373.782,148.297 368.204,144.031 368.204,142.031 365.184,145.687 370.43,152.682 
															"/>
							<polygon style="fill:#03254E;" points="373.782,148.297 375,148.297 375,165.387 371.106,165.387 373.994,150.947 
								373.109,149.177 							"/>
							<path style="fill:#03254E;" d="M365.184,145.687l1.368-1.656l-4.746,1.895c0,0-6.518,0.954-9.618,1.431
								c-3.1,0.477-6.955,1.789-6.955,1.789s2.663,14.149,9.141,18.521c6.478,4.372,15.938,4.372,15.938,4.372L365.184,145.687z"/>
						</g>
					</g>
					
						<text transform="matrix(1 0 0 1 334.7461 183.2373)" style="fill:#58595B; font-family:'Montserrat-Bold'; font-size:8.8462px;">YOUR TEXT HERE</text>
					
						<text transform="matrix(1 0 0 1 348.5186 196.6348)" style="fill:#FFFFFF; font-family:'Montserrat-Regular'; font-size:6.1923px;">JOB POSITION</text>
				</g>
			</g>
		</g>
		<g>
			<g>
				<rect x="578.63" y="337.035" style="fill:#FC7808;" width="4" height="23.887"/>
			</g>
			<g>
				<path style="fill:#FC7808;" d="M657.304,361.694h-4v-89.827c0-1.331-1.082-2.413-2.413-2.413h-25.923v-4h25.964
					c3.518,0.022,6.372,2.891,6.372,6.413V361.694z"/>
			</g>
			<g>
				<path style="fill:#FC7808;" d="M507.956,361.694h-4v-89.827c0-3.451,2.74-6.274,6.158-6.408v-0.005h26.176v4h-25.921
					c-1.331,0-2.413,1.082-2.413,2.413V361.694z"/>
			</g>
			<g>
				<g>
					<rect x="550.217" y="324.223" style="fill:#FC7808;" width="60.823" height="8.494"/>
					<path style="fill:#FC7808;" d="M580.63,304.243c-21.692,0-39.34-17.647-39.34-39.339c0-21.692,17.647-39.34,39.34-39.34
						c21.691,0,39.339,17.648,39.339,39.34C619.969,286.596,602.321,304.243,580.63,304.243z"/>
					<path style="fill:#FCB960;" d="M580.63,298.573c-18.565,0-33.669-15.104-33.669-33.669c0-18.565,15.104-33.669,33.669-33.669
						c18.565,0,33.669,15.104,33.669,33.669C614.299,283.469,599.195,298.573,580.63,298.573z"/>
					<g>
						<defs>
							<path id="SVGID_00000076565108810829548250000010452532333403905933_" d="M580.63,298.573
								c-18.565,0-33.669-15.104-33.669-33.669c0-18.565,15.104-33.669,33.669-33.669c18.565,0,33.669,15.104,33.669,33.669
								C614.299,283.469,599.195,298.573,580.63,298.573z"/>
						</defs>
						<clipPath id="SVGID_00000001651219065375371800000016033159263582262924_">
							<use xlink:href="#SVGID_00000076565108810829548250000010452532333403905933_"  style="overflow:visible;"/>
						</clipPath>
						<path style="clip-path:url(#SVGID_00000001651219065375371800000016033159263582262924_);fill:#F4B298;" d="M613.835,295.451
							c-0.449-2.005-1.122-4.145-2.16-6.065c-1.037-1.916-2.454-3.629-4.399-4.672c-3.759-2.008-8.23-2.833-12.045-3.381
							c-1.906-0.272-3.649-0.472-5.033-0.697c-0.691-0.112-1.293-0.231-1.768-0.361c-0.474-0.127-0.823-0.276-0.98-0.384
							l-0.002-0.001l-0.098-0.117c-0.069-0.112-0.149-0.334-0.198-0.624c-0.051-0.289-0.074-0.641-0.074-1.009
							c0-0.686,0.081-1.425,0.163-1.983c0.041-0.279,0.083-0.513,0.113-0.675l0.036-0.186l0.012-0.059l0.566-2.59l-2.004,1.635
							c-1.862,1.527-3.82,2.358-5.336,2.349c-1.52,0.009-3.463-0.811-5.324-2.347l-2.002-1.644l0.561,2.595l0.012,0.059
							c0.06,0.29,0.311,1.636,0.309,2.841c0.001,0.492-0.044,0.958-0.131,1.28c-0.043,0.161-0.095,0.285-0.14,0.361l-0.097,0.116
							c-0.156,0.108-0.505,0.257-0.979,0.384c-0.833,0.229-2.046,0.417-3.468,0.608c-4.279,0.586-10.454,1.2-15.378,3.831
							c-1.946,1.042-3.365,2.755-4.404,4.671c-1.557,2.88-2.301,6.256-2.681,8.927c-0.377,2.67-0.377,4.636-0.377,4.668v0.945
							h68.199v-0.945C614.728,302.936,614.73,299.459,613.835,295.451z"/>
						<path style="clip-path:url(#SVGID_00000001651219065375371800000016033159263582262924_);fill:#FFC8AF;" d="M587.388,275.756
							l-0.014,0.011c0,0-0.001,0.001-0.002,0.001L587.388,275.756z M591.108,247.092c-2.512-3.365-6.183-5.517-10.478-5.511
							c-4.29-0.006-7.961,2.147-10.475,5.511c-2.523,3.367-3.955,7.94-3.956,12.959c0,3.344,0.904,6.47,2.313,9.156
							c1.41,2.687,3.323,4.94,5.388,6.563c2.182,1.708,4.523,2.742,6.731,2.751c2.211-0.009,4.558-1.054,6.739-2.749l0.005-0.004
							c2.063-1.628,3.972-3.884,5.38-6.57c1.406-2.686,2.306-5.808,2.306-9.147C595.059,255.032,593.63,250.458,591.108,247.092z"/>
						<path style="clip-path:url(#SVGID_00000001651219065375371800000016033159263582262924_);fill:#4D3101;" d="M593.188,242.458
							c-0.626-0.702-2.605-0.552-2.605-0.552s-0.977-2.583-1.9-3.017c-2.146-1.01-4.844-1.601-8.221-1.601
							c-23.165,0-14.096,25.801-14.096,25.801c-0.012-0.295-0.022-0.581-0.024-0.842c0,0,0.555-6.037,4.945-9.675l-1.574,3.69
							c0,0,14.19-2.921,18.589-9.233c2.41,3.391,5.832,9.407,6.437,15.294c-0.003,0.24-0.012,0.499-0.023,0.766
							C594.716,263.089,600.078,250.189,593.188,242.458z"/>
						<g style="clip-path:url(#SVGID_00000001651219065375371800000016033159263582262924_);">
							<path style="fill:#C3D3DD;" d="M602.528,282.202c-2.901-0.795-8.903-1.47-12.082-1.709l-8.598,2.61l-1.218,5.326v12.533
								l8.302-0.618l4.257,3.599l13.076-8.505l4.213-10.373C610.477,285.063,605.429,282.996,602.528,282.202z"/>
							<polygon style="fill:#F0F5F7;" points="581.848,283.103 587.08,278.837 587.171,276.695 590.446,280.493 585.2,287.488 
															"/>
						</g>
						<g style="clip-path:url(#SVGID_00000001651219065375371800000016033159263582262924_);">
							<path style="fill:#C3D3DD;" d="M558.731,282.202c2.901-0.795,8.903-1.47,12.082-1.709l8.598,2.61l1.218,5.326v12.533
								l-8.302-0.618l-4.257,3.599l-13.076-8.505l-4.213-10.373C550.782,285.063,555.83,282.996,558.731,282.202z"/>
							<polygon style="fill:#F0F5F7;" points="579.411,283.103 574.18,278.837 574.088,276.695 570.813,280.493 576.06,287.488 
															"/>
						</g>
					</g>
					
						<text transform="matrix(1 0 0 1 540.375 317.7871)" style="fill:#58595B; font-family:'Montserrat-Bold'; font-size:8.8462px;">YOUR TEXT HERE</text>
					
						<text transform="matrix(1 0 0 1 554.1475 330.4863)" style="fill:#FFFFFF; font-family:'Montserrat-Regular'; font-size:6.1923px;">JOB POSITION</text>
				</g>
			</g>
			<g>
				<g>
					<path style="fill:#3887FE;" d="M655.283,422.286c-15.327,0-27.796-12.469-27.796-27.796c0-15.327,12.469-27.796,27.796-27.796
						c15.326,0,27.796,12.469,27.796,27.796C683.078,409.817,670.609,422.286,655.283,422.286z"/>
					<path style="fill:#84B3F7;" d="M655.283,418.28c-13.118,0-23.79-10.672-23.79-23.789c0-13.118,10.672-23.79,23.79-23.79
						s23.789,10.672,23.789,23.79C679.072,407.608,668.4,418.28,655.283,418.28z"/>
					<g>
						<defs>
							<path id="SVGID_00000139293928302730978400000002662958057501870999_" d="M655.283,418.28
								c-13.118,0-23.79-10.672-23.79-23.789c0-13.118,10.672-23.79,23.79-23.79s23.789,10.672,23.789,23.79
								C679.072,407.608,668.4,418.28,655.283,418.28z"/>
						</defs>
						<clipPath id="SVGID_00000134251751185391754280000003473796955062377885_">
							<use xlink:href="#SVGID_00000139293928302730978400000002662958057501870999_"  style="overflow:visible;"/>
						</clipPath>
						<g style="clip-path:url(#SVGID_00000134251751185391754280000003473796955062377885_);">
							<path style="fill:#F4B298;" d="M678.745,416.074c-0.317-1.417-0.793-2.929-1.526-4.286c-0.733-1.354-1.734-2.564-3.108-3.301
								c-2.656-1.419-5.815-2.002-8.511-2.389c-1.347-0.192-2.578-0.334-3.556-0.492c-0.488-0.079-0.913-0.163-1.249-0.255
								c-0.335-0.09-0.581-0.195-0.692-0.272l-0.001-0.001l-0.069-0.083c-0.049-0.079-0.105-0.236-0.14-0.441
								c-0.036-0.204-0.053-0.453-0.052-0.713c0-0.485,0.057-1.007,0.115-1.401c0.029-0.197,0.058-0.363,0.08-0.477l0.026-0.132
								l0.009-0.041l0.4-1.83l-1.416,1.155c-1.316,1.079-2.699,1.666-3.771,1.66c-1.074,0.006-2.447-0.573-3.762-1.658l-1.414-1.161
								l0.396,1.833l0.008,0.041c0.042,0.205,0.22,1.156,0.218,2.007c0.001,0.347-0.031,0.677-0.093,0.905
								c-0.03,0.114-0.067,0.201-0.099,0.255l-0.068,0.082c-0.111,0.076-0.357,0.182-0.692,0.271
								c-0.589,0.161-1.446,0.294-2.45,0.43c-3.024,0.414-7.386,0.848-10.865,2.707c-1.375,0.736-2.378,1.947-3.112,3.301
								c-1.1,2.035-1.626,4.42-1.894,6.307c-0.266,1.887-0.266,3.276-0.267,3.298v0.668h48.188v-0.668
								C679.375,421.363,679.377,418.906,678.745,416.074z"/>
							<path style="fill:#FFC8AF;" d="M660.058,402.159l-0.01,0.008c0,0-0.001,0.001-0.001,0.001L660.058,402.159z M662.686,381.905
								c-1.775-2.377-4.369-3.898-7.404-3.894c-3.031-0.004-5.625,1.517-7.401,3.894c-1.783,2.379-2.794,5.61-2.796,9.157
								c0,2.363,0.639,4.571,1.634,6.469c0.996,1.898,2.348,3.491,3.807,4.637c1.541,1.207,3.196,1.938,4.756,1.944
								c1.562-0.007,3.22-0.745,4.762-1.942l0.004-0.003c1.458-1.15,2.807-2.744,3.801-4.642c0.993-1.898,1.63-4.104,1.63-6.463
								C665.478,387.515,664.468,384.284,662.686,381.905z"/>
							<path style="fill:#4D3101;" d="M664.156,378.631c-0.442-0.496-1.841-0.39-1.841-0.39s-0.69-1.825-1.342-2.132
								c-1.516-0.713-3.422-1.131-5.809-1.131c-16.368,0-9.96,18.23-9.96,18.23c-0.009-0.209-0.015-0.411-0.017-0.595
								c0,0,0.392-4.266,3.494-6.836l-1.112,2.607c0,0,10.026-2.064,13.135-6.523c1.703,2.396,4.121,6.646,4.548,10.806
								c-0.002,0.169-0.008,0.352-0.016,0.541C665.235,393.208,669.024,384.093,664.156,378.631z"/>
							<g>
								<path style="fill:#C3D3DD;" d="M670.755,406.713c-2.05-0.562-6.291-1.039-8.537-1.207l-6.075,1.844l-0.861,3.763v8.855
									l5.866-0.437l3.008,2.543l9.239-6.01l2.977-7.329C676.372,408.735,672.805,407.274,670.755,406.713z"/>
								<polygon style="fill:#F0F5F7;" points="656.143,407.349 659.84,404.335 659.905,402.822 662.218,405.505 658.511,410.448 
																	"/>
							</g>
							<g>
								<path style="fill:#C3D3DD;" d="M639.81,406.713c2.05-0.562,6.291-1.039,8.537-1.207l6.075,1.844l0.861,3.763v8.855
									l-5.866-0.437l-3.008,2.543l-9.239-6.01l-2.977-7.329C634.193,408.735,637.76,407.274,639.81,406.713z"/>
								<polygon style="fill:#F0F5F7;" points="654.422,407.349 650.725,404.335 650.66,402.822 648.347,405.505 652.054,410.448 
																	"/>
							</g>
						</g>
					</g>
					
						<text transform="matrix(1 0 0 1 626.8398 432.1865)" style="fill:#58595B; font-family:'Montserrat-Bold'; font-size:6.2505px;">YOUR TEXT HERE</text>
					<rect x="633.794" y="436.449" style="fill:#3887FE;" width="42.976" height="6.002"/>
					
						<text transform="matrix(1 0 0 1 636.5713 441.1035)" style="fill:#FFFFFF; font-family:'Montserrat-Regular'; font-size:4.3753px;">JOB POSITION</text>
				</g>
			</g>
			<g>
				<g>
					<rect x="559.142" y="436.737" style="fill:#3887FE;" width="42.976" height="6.002"/>
					<path style="fill:#3887FE;" d="M580.63,422.286c-15.327,0-27.796-12.469-27.796-27.796c0-15.327,12.469-27.796,27.796-27.796
						c15.326,0,27.796,12.469,27.796,27.796C608.426,409.817,595.956,422.286,580.63,422.286z"/>
					<path style="fill:#9BC1F9;" d="M580.63,418.28c-13.118,0-23.79-10.672-23.79-23.789c0-13.118,10.672-23.79,23.79-23.79
						s23.789,10.672,23.789,23.79C604.419,407.608,593.748,418.28,580.63,418.28z"/>
					<g>
						<defs>
							<path id="SVGID_00000035499951373022073070000015923587880722671757_" d="M580.63,418.28
								c-13.118,0-23.79-10.672-23.79-23.789c0-13.118,10.672-23.79,23.79-23.79s23.789,10.672,23.789,23.79
								C604.419,407.608,593.748,418.28,580.63,418.28z"/>
						</defs>
						<clipPath id="SVGID_00000154420715506506276910000011309495028812187577_">
							<use xlink:href="#SVGID_00000035499951373022073070000015923587880722671757_"  style="overflow:visible;"/>
						</clipPath>
						<path style="clip-path:url(#SVGID_00000154420715506506276910000011309495028812187577_);fill:#4D3101;" d="M580.63,377.601
							c3.65-1.18,9.828,2.078,12.243,7.133c2.415,5.055,2.022,18.927,1.853,19.601c-0.168,0.674-14.097,1.011-14.097,1.011V377.601z
							"/>
						<path style="clip-path:url(#SVGID_00000154420715506506276910000011309495028812187577_);fill:#4D3101;" d="M580.63,377.601
							c-3.65-1.18-9.828,2.078-12.243,7.133s-2.022,18.927-1.853,19.601c0.169,0.674,14.097,1.011,14.097,1.011V377.601z"/>
						<path style="clip-path:url(#SVGID_00000154420715506506276910000011309495028812187577_);fill:#F4B298;" d="M600.537,416.074
							c-0.269-1.417-0.673-2.929-1.295-4.286c-0.622-1.354-1.471-2.564-2.637-3.301c-2.254-1.419-4.934-2.002-7.221-2.389
							c-1.143-0.192-2.188-0.334-3.017-0.492c-0.414-0.079-0.775-0.163-1.06-0.255c-0.284-0.09-0.493-0.195-0.588-0.272
							l-0.001-0.001l-0.059-0.083c-0.041-0.079-0.089-0.236-0.119-0.441c-0.03-0.204-0.045-0.453-0.044-0.713
							c0-0.485,0.048-1.007,0.098-1.401c0.025-0.197,0.05-0.363,0.068-0.477l0.022-0.132l0.007-0.041l0.339-1.83l-1.201,1.155
							c-1.117,1.079-2.29,1.666-3.199,1.66c-0.911,0.006-2.076-0.573-3.192-1.658l-1.2-1.161l0.336,1.833l0.007,0.041
							c0.036,0.205,0.186,1.156,0.185,2.007c0.001,0.347-0.026,0.677-0.079,0.905c-0.026,0.114-0.057,0.201-0.084,0.255
							l-0.058,0.082c-0.094,0.076-0.303,0.182-0.587,0.271c-0.5,0.161-1.227,0.294-2.079,0.43c-2.565,0.414-6.267,0.848-9.219,2.707
							c-1.167,0.736-2.018,1.947-2.64,3.301c-0.933,2.035-1.38,4.42-1.607,6.307c-0.226,1.887-0.226,3.276-0.226,3.298v0.668h40.886
							v-0.668C601.073,421.363,601.074,418.906,600.537,416.074z"/>
						<path style="clip-path:url(#SVGID_00000154420715506506276910000011309495028812187577_);fill:#FFC8AF;" d="M585.405,402.159
							l-0.01,0.008c0,0-0.001,0.001-0.001,0.001L585.405,402.159z M588.034,381.905c-1.775-2.377-4.369-3.898-7.404-3.894
							c-3.031-0.004-5.625,1.517-7.401,3.894c-1.783,2.379-2.794,5.61-2.796,9.157c0,2.363,0.639,4.571,1.634,6.469
							c0.996,1.898,2.348,3.491,3.807,4.637c1.541,1.207,3.196,1.938,4.756,1.944c1.562-0.007,3.22-0.745,4.761-1.942l0.004-0.003
							c1.458-1.15,2.807-2.744,3.801-4.642c0.993-1.898,1.63-4.104,1.63-6.463C590.825,387.515,589.815,384.284,588.034,381.905z"/>
						<g style="clip-path:url(#SVGID_00000154420715506506276910000011309495028812187577_);">
							<path style="fill:#DCE8EF;" d="M581.303,407.349l-0.674,3.838v8.93c0,0,11.879-1.573,15.445-4.072
								c3.567-2.499,3.117-5.476,3.117-5.476s-1.787-2.213-3.005-2.78c-4.1-1.91-9.96-2.284-9.96-2.284L581.303,407.349z"/>
							<polygon style="fill:#F0F5F7;" points="581.303,407.349 584.497,403.842 584.541,402.944 586.864,405.514 583.943,410.597 
															"/>
						</g>
						<g style="clip-path:url(#SVGID_00000154420715506506276910000011309495028812187577_);">
							<path style="fill:#DCE8EF;" d="M579.956,407.349l0.674,3.838v8.93c0,0-11.879-1.573-15.445-4.072
								c-3.566-2.499-3.117-5.476-3.117-5.476s1.787-2.213,3.005-2.78c4.1-1.91,9.96-2.284,9.96-2.284L579.956,407.349z"/>
							<polygon style="fill:#F0F5F7;" points="579.956,407.349 576.763,403.842 576.719,402.944 574.396,405.514 577.316,410.597 
															"/>
						</g>
						<path style="clip-path:url(#SVGID_00000154420715506506276910000011309495028812187577_);fill:#4D3101;" d="M580.629,385.22
							c1.535,2.509,8.949,6.403,8.949,6.403v8.387c0,0,2.509-2.396,3.033-7.451c0.524-5.055-2.995-11.046-2.995-11.046l-5.729-3.52
							l-3.258-0.225V385.22z"/>
						<path style="clip-path:url(#SVGID_00000154420715506506276910000011309495028812187577_);fill:#4D3101;" d="M580.629,385.22
							c-1.535,2.509-8.949,6.403-8.949,6.403v8.387c0,0-2.509-2.396-3.033-7.451c-0.524-5.055,2.995-11.046,2.995-11.046l5.729-3.52
							l3.258-0.225V385.22z"/>
					</g>
					
						<text transform="matrix(1 0 0 1 552.1875 432.1123)" style="fill:#58595B; font-family:'Montserrat-Bold'; font-size:6.2505px;">YOUR TEXT HERE</text>
					
						<text transform="matrix(1 0 0 1 561.9189 441.3906)" style="fill:#FFFFFF; font-family:'Montserrat-Regular'; font-size:4.3753px;">JOB POSITION</text>
				</g>
			</g>
			<g>
				<g>
					<path style="fill:#3887FE;" d="M505.977,422.286c-15.327,0-27.796-12.469-27.796-27.796c0-15.327,12.469-27.796,27.796-27.796
						c15.327,0,27.796,12.469,27.796,27.796C533.773,409.817,521.304,422.286,505.977,422.286z"/>
					<path style="fill:#84B3F7;" d="M505.977,418.28c-13.118,0-23.79-10.672-23.79-23.789c0-13.118,10.672-23.79,23.79-23.79
						c13.118,0,23.79,10.672,23.79,23.79C529.767,407.608,519.095,418.28,505.977,418.28z"/>
					<g>
						<defs>
							<path id="SVGID_00000145025615938865735320000015770974881467177905_" d="M505.977,418.28
								c-13.118,0-23.79-10.672-23.79-23.789c0-13.118,10.672-23.79,23.79-23.79c13.118,0,23.79,10.672,23.79,23.79
								C529.767,407.608,519.095,418.28,505.977,418.28z"/>
						</defs>
						<clipPath id="SVGID_00000170267805350504627420000001801818167935982775_">
							<use xlink:href="#SVGID_00000145025615938865735320000015770974881467177905_"  style="overflow:visible;"/>
						</clipPath>
						<g style="clip-path:url(#SVGID_00000170267805350504627420000001801818167935982775_);">
							<path style="fill:#F4B298;" d="M529.44,416.074c-0.317-1.417-0.793-2.929-1.526-4.286c-0.733-1.354-1.734-2.564-3.108-3.301
								c-2.656-1.419-5.815-2.002-8.511-2.389c-1.347-0.192-2.578-0.334-3.556-0.492c-0.488-0.079-0.913-0.163-1.249-0.255
								c-0.335-0.09-0.581-0.195-0.692-0.272l-0.001-0.001l-0.069-0.083c-0.049-0.079-0.105-0.236-0.14-0.441
								c-0.036-0.204-0.053-0.453-0.052-0.713c0-0.485,0.057-1.007,0.115-1.401c0.029-0.197,0.058-0.363,0.08-0.477l0.026-0.132
								l0.009-0.041l0.4-1.83l-1.416,1.155c-1.316,1.079-2.699,1.666-3.771,1.66c-1.074,0.006-2.447-0.573-3.762-1.658l-1.414-1.161
								l0.396,1.833l0.008,0.041c0.043,0.205,0.22,1.156,0.218,2.007c0.001,0.347-0.031,0.677-0.093,0.905
								c-0.03,0.114-0.067,0.201-0.099,0.255l-0.068,0.082c-0.111,0.076-0.357,0.182-0.692,0.271
								c-0.589,0.161-1.446,0.294-2.45,0.43c-3.024,0.414-7.386,0.848-10.865,2.707c-1.375,0.736-2.378,1.947-3.111,3.301
								c-1.1,2.035-1.626,4.42-1.894,6.307c-0.266,1.887-0.266,3.276-0.266,3.298v0.668h48.188v-0.668
								C530.07,421.363,530.072,418.906,529.44,416.074z"/>
							<path style="fill:#FFC8AF;" d="M510.753,402.159l-0.01,0.008c0,0-0.001,0.001-0.001,0.001L510.753,402.159z M513.381,381.905
								c-1.775-2.377-4.369-3.898-7.404-3.894c-3.031-0.004-5.625,1.517-7.401,3.894c-1.783,2.379-2.794,5.61-2.796,9.157
								c0,2.363,0.638,4.571,1.634,6.469c0.996,1.898,2.348,3.491,3.807,4.637c1.541,1.207,3.196,1.938,4.756,1.944
								c1.562-0.007,3.22-0.745,4.762-1.942l0.004-0.003c1.458-1.15,2.807-2.744,3.801-4.642c0.993-1.898,1.63-4.104,1.63-6.463
								C516.172,387.515,515.163,384.284,513.381,381.905z"/>
							<path style="fill:#4D3101;" d="M514.85,378.631c-0.442-0.496-1.841-0.39-1.841-0.39s-0.69-1.825-1.342-2.132
								c-1.516-0.713-3.422-1.131-5.809-1.131c-16.368,0-9.96,18.23-9.96,18.23c-0.009-0.209-0.015-0.411-0.017-0.595
								c0,0,0.392-4.266,3.494-6.836l-1.112,2.607c0,0,10.026-2.064,13.135-6.523c1.703,2.396,4.121,6.646,4.548,10.806
								c-0.002,0.169-0.008,0.352-0.016,0.541C515.93,393.208,519.719,384.093,514.85,378.631z"/>
							<g>
								<path style="fill:#C3D3DD;" d="M521.45,406.713c-2.05-0.562-6.29-1.039-8.537-1.207l-6.075,1.844l-0.861,3.763v8.855
									l5.866-0.437l3.008,2.543l9.239-6.01l2.977-7.329C527.067,408.735,523.5,407.274,521.45,406.713z"/>
								<polygon style="fill:#F0F5F7;" points="506.838,407.349 510.535,404.335 510.599,402.822 512.913,405.505 509.206,410.448 
																	"/>
							</g>
							<g>
								<path style="fill:#C3D3DD;" d="M490.504,406.713c2.05-0.562,6.29-1.039,8.537-1.207l6.075,1.844l0.861,3.763v8.855
									l-5.866-0.437l-3.008,2.543l-9.239-6.01l-2.977-7.329C484.888,408.735,488.454,407.274,490.504,406.713z"/>
								<polygon style="fill:#F0F5F7;" points="505.117,407.349 501.42,404.335 501.355,402.822 499.042,405.505 502.748,410.448 
																	"/>
							</g>
						</g>
					</g>
					
						<text transform="matrix(1 0 0 1 477.5342 432.1865)" style="fill:#58595B; font-family:'Montserrat-Bold'; font-size:6.2505px;">YOUR TEXT HERE</text>
					<rect x="484.489" y="436.449" style="fill:#3887FE;" width="42.976" height="6.002"/>
					
						<text transform="matrix(1 0 0 1 487.2666 441.1035)" style="fill:#FFFFFF; font-family:'Montserrat-Regular'; font-size:4.3753px;">JOB POSITION</text>
				</g>
			</g>
		</g>
		<g>
			<g>
				<rect x="167.371" y="337.035" style="fill:#3887FE;" width="4" height="23.887"/>
			</g>
			<g>
				<path style="fill:#3887FE;" d="M96.697,361.694h-4v-89.827c0-3.536,2.877-6.413,6.413-6.413h25.921v4H99.11
					c-1.331,0-2.413,1.082-2.413,2.413V361.694z"/>
			</g>
			<g>
				<path style="fill:#3887FE;" d="M246.045,361.694h-4v-89.827c0-1.331-1.082-2.413-2.413-2.413H213.71v-4h25.922
					c3.536,0,6.413,2.877,6.413,6.413V361.694z"/>
			</g>
			<g>
				<g>
					<path style="fill:#3887FE;" d="M169.371,304.243c-21.692,0-39.34-17.647-39.34-39.339c0-21.692,17.647-39.34,39.34-39.34
						c21.691,0,39.339,17.648,39.339,39.34C208.71,286.596,191.063,304.243,169.371,304.243z"/>
					<path style="fill:#84B3F7;" d="M169.371,298.573c-18.565,0-33.669-15.104-33.669-33.669c0-18.565,15.104-33.669,33.669-33.669
						c18.565,0,33.669,15.104,33.669,33.669C203.04,283.469,187.936,298.573,169.371,298.573z"/>
					<g>
						<defs>
							<path id="SVGID_00000076594506455849737000000009429340897801723780_" d="M169.371,298.573
								c-18.565,0-33.669-15.104-33.669-33.669c0-18.565,15.104-33.669,33.669-33.669c18.565,0,33.669,15.104,33.669,33.669
								C203.04,283.469,187.936,298.573,169.371,298.573z"/>
						</defs>
						<clipPath id="SVGID_00000044158989839093695770000004476066336945932969_">
							<use xlink:href="#SVGID_00000076594506455849737000000009429340897801723780_"  style="overflow:visible;"/>
						</clipPath>
						<g style="clip-path:url(#SVGID_00000044158989839093695770000004476066336945932969_);">
							<path style="fill:#F4B298;" d="M202.577,295.451c-0.449-2.005-1.122-4.145-2.16-6.065c-1.037-1.916-2.454-3.629-4.399-4.672
								c-3.759-2.008-8.23-2.833-12.045-3.381c-1.906-0.272-3.649-0.472-5.033-0.697c-0.691-0.112-1.293-0.231-1.768-0.361
								c-0.474-0.127-0.822-0.276-0.98-0.384l-0.002-0.001l-0.098-0.117c-0.069-0.112-0.149-0.334-0.198-0.624
								c-0.051-0.289-0.074-0.641-0.074-1.009c0-0.686,0.081-1.425,0.163-1.983c0.041-0.279,0.083-0.513,0.113-0.675l0.036-0.186
								l0.012-0.059l0.566-2.59l-2.004,1.635c-1.862,1.527-3.82,2.358-5.336,2.349c-1.52,0.009-3.463-0.811-5.324-2.347
								l-2.002-1.644l0.561,2.595l0.012,0.059c0.06,0.29,0.311,1.636,0.309,2.841c0.001,0.492-0.044,0.958-0.132,1.28
								c-0.043,0.161-0.095,0.285-0.14,0.361l-0.097,0.116c-0.157,0.108-0.505,0.257-0.979,0.384
								c-0.834,0.229-2.046,0.417-3.468,0.608c-4.279,0.586-10.454,1.2-15.378,3.831c-1.946,1.042-3.365,2.755-4.404,4.671
								c-1.557,2.88-2.301,6.256-2.681,8.927c-0.377,2.67-0.377,4.636-0.377,4.668v0.945h68.199v-0.945
								C203.469,302.936,203.471,299.459,202.577,295.451z"/>
							<path style="fill:#FFC8AF;" d="M176.129,275.756l-0.014,0.011c-0.001,0-0.001,0.001-0.002,0.001L176.129,275.756z
								 M179.85,247.092c-2.512-3.365-6.183-5.517-10.478-5.511c-4.29-0.006-7.961,2.147-10.475,5.511
								c-2.523,3.367-3.955,7.94-3.956,12.959c0,3.344,0.904,6.47,2.313,9.156c1.41,2.687,3.323,4.94,5.388,6.563
								c2.181,1.708,4.523,2.742,6.731,2.751c2.211-0.009,4.558-1.054,6.739-2.749l0.005-0.004c2.063-1.628,3.972-3.884,5.379-6.57
								c1.406-2.686,2.306-5.808,2.307-9.147C183.8,255.032,182.371,250.458,179.85,247.092z"/>
							<path style="fill:#4D3101;" d="M181.929,242.458c-0.626-0.702-2.605-0.552-2.605-0.552s-0.977-2.583-1.9-3.017
								c-2.145-1.01-4.844-1.601-8.221-1.601c-23.165,0-14.095,25.801-14.095,25.801c-0.012-0.295-0.022-0.581-0.024-0.842
								c0,0,0.555-6.037,4.945-9.675l-1.574,3.69c0,0,14.19-2.921,18.589-9.233c2.41,3.391,5.832,9.407,6.437,15.294
								c-0.003,0.24-0.012,0.499-0.023,0.766C183.457,263.089,188.819,250.189,181.929,242.458z"/>
							<g>
								<path style="fill:#C3D3DD;" d="M191.269,282.202c-2.901-0.795-8.903-1.47-12.082-1.709l-8.598,2.61l-1.218,5.326v12.533
									l8.302-0.618l4.257,3.599l13.076-8.505l4.213-10.373C199.218,285.063,194.171,282.996,191.269,282.202z"/>
								<polygon style="fill:#F0F5F7;" points="170.589,283.103 175.821,278.837 175.913,276.695 179.187,280.493 173.941,287.488 
																	"/>
							</g>
							<g>
								<path style="fill:#C3D3DD;" d="M147.473,282.202c2.901-0.795,8.903-1.47,12.082-1.709l8.598,2.61l1.218,5.326v12.533
									l-8.302-0.618l-4.257,3.599l-13.076-8.505l-4.213-10.373C139.524,285.063,144.571,282.996,147.473,282.202z"/>
								<polygon style="fill:#F0F5F7;" points="168.153,283.103 162.921,278.837 162.829,276.695 159.555,280.493 164.801,287.488 
																	"/>
							</g>
						</g>
					</g>
					
						<text transform="matrix(1 0 0 1 129.1162 318.2549)" style="fill:#58595B; font-family:'Montserrat-Bold'; font-size:8.8462px;">YOUR TEXT HERE</text>
					<rect x="138.959" y="324.287" style="fill:#3887FE;" width="60.823" height="8.494"/>
					
						<text transform="matrix(1 0 0 1 142.8887 330.874)" style="fill:#FFFFFF; font-family:'Montserrat-Regular'; font-size:6.1923px;">JOB POSITION</text>
				</g>
			</g>
			<g>
				<g>
					<rect x="222.535" y="436.404" style="fill:#FF006C;" width="42.976" height="6.002"/>
					<path style="fill:#FF006C;" d="M244.024,422.286c-15.327,0-27.796-12.469-27.796-27.796c0-15.327,12.469-27.796,27.796-27.796
						c15.327,0,27.796,12.469,27.796,27.796C271.819,409.817,259.35,422.286,244.024,422.286z"/>
					<path style="fill:#FF88C7;" d="M244.024,418.28c-13.118,0-23.79-10.672-23.79-23.789c0-13.118,10.672-23.79,23.79-23.79
						c13.118,0,23.789,10.672,23.789,23.79C267.813,407.608,257.142,418.28,244.024,418.28z"/>
					<g>
						<defs>
							<path id="SVGID_00000016786838159361399060000010194744966190336142_" d="M244.024,418.28
								c-13.118,0-23.79-10.672-23.79-23.789c0-13.118,10.672-23.79,23.79-23.79c13.118,0,23.789,10.672,23.789,23.79
								C267.813,407.608,257.142,418.28,244.024,418.28z"/>
						</defs>
						<clipPath id="SVGID_00000146498650677775203920000009472199713054116234_">
							<use xlink:href="#SVGID_00000016786838159361399060000010194744966190336142_"  style="overflow:visible;"/>
						</clipPath>
						<path style="clip-path:url(#SVGID_00000146498650677775203920000009472199713054116234_);fill:#4D3101;" d="M244.024,377.601
							c3.65-1.18,9.828,2.078,12.243,7.133c2.415,5.055,2.022,18.927,1.853,19.601c-0.169,0.674-14.097,1.011-14.097,1.011V377.601z
							"/>
						<path style="clip-path:url(#SVGID_00000146498650677775203920000009472199713054116234_);fill:#4D3101;" d="M244.024,377.601
							c-3.65-1.18-9.828,2.078-12.243,7.133s-2.022,18.927-1.853,19.601c0.169,0.674,14.097,1.011,14.097,1.011V377.601z"/>
						<path style="clip-path:url(#SVGID_00000146498650677775203920000009472199713054116234_);fill:#F4B298;" d="M263.931,416.074
							c-0.269-1.417-0.673-2.929-1.295-4.286c-0.622-1.354-1.471-2.564-2.637-3.301c-2.254-1.419-4.934-2.002-7.221-2.389
							c-1.143-0.192-2.188-0.334-3.017-0.492c-0.414-0.079-0.775-0.163-1.06-0.255c-0.284-0.09-0.493-0.195-0.587-0.272
							l-0.001-0.001l-0.059-0.083c-0.041-0.079-0.089-0.236-0.119-0.441c-0.03-0.204-0.045-0.453-0.045-0.713
							c0-0.485,0.048-1.007,0.098-1.401c0.025-0.197,0.049-0.363,0.068-0.477l0.022-0.132l0.007-0.041l0.339-1.83l-1.202,1.155
							c-1.117,1.079-2.29,1.666-3.199,1.66c-0.911,0.006-2.076-0.573-3.192-1.658l-1.2-1.161l0.336,1.833l0.007,0.041
							c0.036,0.205,0.186,1.156,0.185,2.007c0.001,0.347-0.026,0.677-0.079,0.905c-0.026,0.114-0.057,0.201-0.084,0.255
							l-0.058,0.082c-0.094,0.076-0.303,0.182-0.587,0.271c-0.5,0.161-1.227,0.294-2.079,0.43c-2.566,0.414-6.267,0.848-9.219,2.707
							c-1.167,0.736-2.018,1.947-2.64,3.301c-0.934,2.035-1.38,4.42-1.607,6.307c-0.226,1.887-0.226,3.276-0.226,3.298v0.668h40.886
							v-0.668C264.466,421.363,264.468,418.906,263.931,416.074z"/>
						<path style="clip-path:url(#SVGID_00000146498650677775203920000009472199713054116234_);fill:#FFC8AF;" d="M248.799,402.159
							l-0.01,0.008c0,0-0.001,0.001-0.001,0.001L248.799,402.159z M251.428,381.905c-1.775-2.377-4.369-3.898-7.404-3.894
							c-3.031-0.004-5.625,1.517-7.401,3.894c-1.783,2.379-2.794,5.61-2.796,9.157c0,2.363,0.639,4.571,1.634,6.469
							c0.996,1.898,2.348,3.491,3.807,4.637c1.541,1.207,3.196,1.938,4.756,1.944c1.562-0.007,3.22-0.745,4.762-1.942l0.004-0.003
							c1.458-1.15,2.807-2.744,3.801-4.642c0.993-1.898,1.63-4.104,1.63-6.463C254.219,387.515,253.209,384.284,251.428,381.905z"/>
						<g style="clip-path:url(#SVGID_00000146498650677775203920000009472199713054116234_);">
							<path style="fill:#DCE8EF;" d="M244.697,407.349l-0.674,3.838v8.93c0,0,11.879-1.573,15.445-4.072
								c3.566-2.499,3.117-5.476,3.117-5.476s-1.787-2.213-3.005-2.78c-4.1-1.91-9.96-2.284-9.96-2.284L244.697,407.349z"/>
							<polygon style="fill:#F0F5F7;" points="244.697,407.349 247.891,403.842 247.934,402.944 250.258,405.514 247.337,410.597 
															"/>
						</g>
						<g style="clip-path:url(#SVGID_00000146498650677775203920000009472199713054116234_);">
							<path style="fill:#DCE8EF;" d="M243.35,407.349l0.674,3.838v8.93c0,0-11.879-1.573-15.445-4.072
								c-3.566-2.499-3.117-5.476-3.117-5.476s1.787-2.213,3.005-2.78c4.1-1.91,9.96-2.284,9.96-2.284L243.35,407.349z"/>
							<polygon style="fill:#F0F5F7;" points="243.35,407.349 240.156,403.842 240.113,402.944 237.79,405.514 240.71,410.597 
															"/>
						</g>
						<path style="clip-path:url(#SVGID_00000146498650677775203920000009472199713054116234_);fill:#4D3101;" d="M244.023,385.22
							c1.535,2.509,8.949,6.403,8.949,6.403v8.387c0,0,2.509-2.396,3.033-7.451s-2.995-11.046-2.995-11.046l-5.729-3.52
							l-3.258-0.225V385.22z"/>
						<path style="clip-path:url(#SVGID_00000146498650677775203920000009472199713054116234_);fill:#4D3101;" d="M244.023,385.22
							c-1.535,2.509-8.949,6.403-8.949,6.403v8.387c0,0-2.509-2.396-3.033-7.451s2.995-11.046,2.995-11.046l5.729-3.52l3.258-0.225
							V385.22z"/>
					</g>
					<text transform="matrix(1 0 0 1 215.5811 432.5)" style="fill:#58595B; font-family:'Montserrat-Bold'; font-size:6.2505px;">YOUR TEXT HERE</text>
					
						<text transform="matrix(1 0 0 1 225.3125 440.8291)" style="fill:#FFFFFF; font-family:'Montserrat-Regular'; font-size:4.3753px;">JOB POSITION</text>
				</g>
			</g>
			<g>
				<g>
					<rect x="147.883" y="436.404" style="fill:#FF006C;" width="42.976" height="6.002"/>
					<path style="fill:#FF006C;" d="M169.371,422.286c-15.327,0-27.796-12.469-27.796-27.796c0-15.327,12.469-27.796,27.796-27.796
						c15.327,0,27.796,12.469,27.796,27.796C197.167,409.817,184.698,422.286,169.371,422.286z"/>
					<path style="fill:#FC90C4;" d="M169.371,418.28c-13.118,0-23.79-10.672-23.79-23.789c0-13.118,10.672-23.79,23.79-23.79
						c13.118,0,23.789,10.672,23.789,23.79C193.161,407.608,182.489,418.28,169.371,418.28z"/>
					<g>
						<defs>
							<path id="SVGID_00000005976719359418197960000011166988873682991262_" d="M169.371,418.28
								c-13.118,0-23.79-10.672-23.79-23.789c0-13.118,10.672-23.79,23.79-23.79c13.118,0,23.789,10.672,23.789,23.79
								C193.161,407.608,182.489,418.28,169.371,418.28z"/>
						</defs>
						<clipPath id="SVGID_00000105405711666361165980000010984394284828581761_">
							<use xlink:href="#SVGID_00000005976719359418197960000011166988873682991262_"  style="overflow:visible;"/>
						</clipPath>
						<path style="clip-path:url(#SVGID_00000105405711666361165980000010984394284828581761_);fill:#F4B298;" d="M192.833,416.074
							c-0.317-1.417-0.793-2.929-1.526-4.286c-0.733-1.354-1.734-2.564-3.108-3.301c-2.656-1.419-5.815-2.002-8.511-2.389
							c-1.347-0.192-2.578-0.334-3.556-0.492c-0.488-0.079-0.913-0.163-1.249-0.255c-0.335-0.09-0.581-0.195-0.692-0.272
							l-0.001-0.001l-0.069-0.083c-0.049-0.079-0.105-0.236-0.14-0.441c-0.036-0.204-0.053-0.453-0.053-0.713
							c0-0.485,0.057-1.007,0.115-1.401c0.029-0.197,0.058-0.363,0.08-0.477l0.026-0.132l0.009-0.041l0.4-1.83l-1.416,1.155
							c-1.316,1.079-2.699,1.666-3.77,1.66c-1.074,0.006-2.447-0.573-3.762-1.658l-1.414-1.161l0.396,1.833l0.008,0.041
							c0.042,0.205,0.22,1.156,0.218,2.007c0.001,0.347-0.031,0.677-0.093,0.905c-0.03,0.114-0.067,0.201-0.099,0.255l-0.068,0.082
							c-0.111,0.076-0.357,0.182-0.692,0.271c-0.589,0.161-1.446,0.294-2.45,0.43c-3.024,0.414-7.386,0.848-10.865,2.707
							c-1.375,0.736-2.378,1.947-3.111,3.301c-1.1,2.035-1.626,4.42-1.894,6.307c-0.266,1.887-0.266,3.276-0.267,3.298v0.668h48.187
							v-0.668C193.464,421.363,193.466,418.906,192.833,416.074z"/>
						<path style="clip-path:url(#SVGID_00000105405711666361165980000010984394284828581761_);fill:#FFC8AF;" d="M174.146,402.159
							l-0.01,0.008c0,0-0.001,0.001-0.001,0.001L174.146,402.159z M176.775,381.905c-1.775-2.377-4.369-3.898-7.404-3.894
							c-3.031-0.004-5.625,1.517-7.401,3.894c-1.783,2.379-2.794,5.61-2.796,9.157c0,2.363,0.639,4.571,1.634,6.469
							c0.997,1.898,2.348,3.491,3.807,4.637c1.541,1.207,3.196,1.938,4.756,1.944c1.562-0.007,3.22-0.745,4.762-1.942l0.004-0.003
							c1.458-1.15,2.807-2.744,3.801-4.642c0.993-1.898,1.63-4.104,1.63-6.463C179.566,387.515,178.557,384.284,176.775,381.905z"/>
						<path style="clip-path:url(#SVGID_00000105405711666361165980000010984394284828581761_);fill:#4D3101;" d="M178.244,378.631
							c-0.442-0.496-1.841-0.39-1.841-0.39s-0.69-1.825-1.342-2.132c-1.516-0.713-3.422-1.131-5.809-1.131
							c-16.368,0-9.959,18.23-9.959,18.23c-0.009-0.209-0.015-0.411-0.017-0.595c0,0,0.392-4.266,3.494-6.836l-1.112,2.607
							c0,0,10.026-2.064,13.135-6.523c1.703,2.396,4.121,6.646,4.548,10.806c-0.002,0.169-0.008,0.352-0.016,0.541
							C179.324,393.208,183.113,384.093,178.244,378.631z"/>
						<g style="clip-path:url(#SVGID_00000105405711666361165980000010984394284828581761_);">
							<path style="fill:#C3D3DD;" d="M184.844,406.713c-2.05-0.562-6.29-1.039-8.537-1.207l-6.075,1.844l-0.861,3.763v8.855
								l5.866-0.437l3.008,2.543l9.239-6.01l2.977-7.329C190.46,408.735,186.894,407.274,184.844,406.713z"/>
							<polygon style="fill:#F0F5F7;" points="170.232,407.349 173.929,404.335 173.993,402.822 176.307,405.505 172.6,410.448 
															"/>
						</g>
						<g style="clip-path:url(#SVGID_00000105405711666361165980000010984394284828581761_);">
							<path style="fill:#C3D3DD;" d="M153.898,406.713c2.05-0.562,6.29-1.039,8.537-1.207l6.075,1.844l0.861,3.763v8.855
								l-5.866-0.437l-3.008,2.543l-9.239-6.01l-2.977-7.329C148.282,408.735,151.848,407.274,153.898,406.713z"/>
							<polygon style="fill:#F0F5F7;" points="168.51,407.349 164.814,404.335 164.749,402.822 162.435,405.505 166.142,410.448 
															"/>
						</g>
					</g>
					
						<text transform="matrix(1 0 0 1 140.9277 432.1865)" style="fill:#58595B; font-family:'Montserrat-Bold'; font-size:6.2505px;">YOUR TEXT HERE</text>
					
						<text transform="matrix(1 0 0 1 150.6602 440.8291)" style="fill:#FFFFFF; font-family:'Montserrat-Regular'; font-size:4.3753px;">JOB POSITION</text>
				</g>
			</g>
			<g>
				<g>
					<rect x="73.23" y="436.404" style="fill:#FF006C;" width="42.976" height="6.002"/>
					<path style="fill:#FF006C;" d="M94.719,422.286c-15.327,0-27.796-12.469-27.796-27.796c0-15.327,12.469-27.796,27.796-27.796
						c15.327,0,27.796,12.469,27.796,27.796C122.514,409.817,110.045,422.286,94.719,422.286z"/>
					<path style="fill:#FC90C4;" d="M94.719,418.28c-13.118,0-23.79-10.672-23.79-23.789c0-13.118,10.672-23.79,23.79-23.79
						c13.118,0,23.789,10.672,23.789,23.79C118.508,407.608,107.836,418.28,94.719,418.28z"/>
					<g>
						<defs>
							<path id="SVGID_00000097459130910863699870000003041115658969597867_" d="M94.719,418.28
								c-13.118,0-23.79-10.672-23.79-23.789c0-13.118,10.672-23.79,23.79-23.79c13.118,0,23.789,10.672,23.789,23.79
								C118.508,407.608,107.836,418.28,94.719,418.28z"/>
						</defs>
						<clipPath id="SVGID_00000005984088873271454680000003977252483391839625_">
							<use xlink:href="#SVGID_00000097459130910863699870000003041115658969597867_"  style="overflow:visible;"/>
						</clipPath>
						<path style="clip-path:url(#SVGID_00000005984088873271454680000003977252483391839625_);fill:#F4B298;" d="M118.181,416.074
							c-0.317-1.417-0.793-2.929-1.526-4.286c-0.733-1.354-1.734-2.564-3.108-3.301c-2.656-1.419-5.815-2.002-8.511-2.389
							c-1.347-0.192-2.578-0.334-3.556-0.492c-0.488-0.079-0.913-0.163-1.249-0.255c-0.335-0.09-0.581-0.195-0.692-0.272
							l-0.001-0.001l-0.069-0.083c-0.049-0.079-0.105-0.236-0.14-0.441c-0.036-0.204-0.053-0.453-0.052-0.713
							c0-0.485,0.057-1.007,0.115-1.401c0.029-0.197,0.058-0.363,0.08-0.477l0.026-0.132l0.009-0.041l0.4-1.83l-1.416,1.155
							c-1.316,1.079-2.699,1.666-3.771,1.66c-1.074,0.006-2.447-0.573-3.762-1.658l-1.414-1.161l0.396,1.833l0.008,0.041
							c0.043,0.205,0.22,1.156,0.218,2.007c0.001,0.347-0.031,0.677-0.093,0.905c-0.03,0.114-0.067,0.201-0.099,0.255l-0.068,0.082
							c-0.111,0.076-0.357,0.182-0.692,0.271c-0.589,0.161-1.446,0.294-2.45,0.43c-3.024,0.414-7.386,0.848-10.865,2.707
							c-1.375,0.736-2.378,1.947-3.111,3.301c-1.1,2.035-1.626,4.42-1.894,6.307c-0.266,1.887-0.266,3.276-0.266,3.298v0.668h48.188
							v-0.668C118.812,421.363,118.813,418.906,118.181,416.074z"/>
						<path style="clip-path:url(#SVGID_00000005984088873271454680000003977252483391839625_);fill:#FFC8AF;" d="M99.494,402.159
							l-0.01,0.008c0,0-0.001,0.001-0.001,0.001L99.494,402.159z M102.122,381.905c-1.775-2.377-4.369-3.898-7.403-3.894
							c-3.031-0.004-5.625,1.517-7.401,3.894c-1.783,2.379-2.794,5.61-2.795,9.157c0,2.363,0.638,4.571,1.634,6.469
							c0.997,1.898,2.348,3.491,3.807,4.637c1.541,1.207,3.196,1.938,4.756,1.944c1.562-0.007,3.22-0.745,4.761-1.942l0.004-0.003
							c1.458-1.15,2.807-2.744,3.801-4.642c0.993-1.898,1.63-4.104,1.63-6.463C104.914,387.515,103.904,384.284,102.122,381.905z"/>
						<path style="clip-path:url(#SVGID_00000005984088873271454680000003977252483391839625_);fill:#4D3101;" d="M103.592,378.631
							c-0.442-0.496-1.841-0.39-1.841-0.39s-0.69-1.825-1.342-2.132c-1.516-0.713-3.422-1.131-5.809-1.131
							c-16.368,0-9.96,18.23-9.96,18.23c-0.009-0.209-0.015-0.411-0.017-0.595c0,0,0.392-4.266,3.494-6.836l-1.112,2.607
							c0,0,10.026-2.064,13.135-6.523c1.703,2.396,4.121,6.646,4.548,10.806c-0.002,0.169-0.008,0.352-0.016,0.541
							C104.671,393.208,108.46,384.093,103.592,378.631z"/>
						<g style="clip-path:url(#SVGID_00000005984088873271454680000003977252483391839625_);">
							<path style="fill:#C3D3DD;" d="M110.191,406.713c-2.05-0.562-6.29-1.039-8.537-1.207l-6.075,1.844l-0.861,3.763v8.855
								l5.866-0.437l3.008,2.543l9.239-6.01l2.977-7.329C115.808,408.735,112.242,407.274,110.191,406.713z"/>
							<polygon style="fill:#F0F5F7;" points="95.579,407.349 99.276,404.335 99.341,402.822 101.655,405.505 97.948,410.448 
															"/>
						</g>
						<g style="clip-path:url(#SVGID_00000005984088873271454680000003977252483391839625_);">
							<path style="fill:#C3D3DD;" d="M79.246,406.713c2.05-0.562,6.291-1.039,8.537-1.207l6.075,1.844l0.861,3.763v8.855
								l-5.866-0.437l-3.008,2.543l-9.239-6.01l-2.977-7.329C73.629,408.735,77.196,407.274,79.246,406.713z"/>
							<polygon style="fill:#F0F5F7;" points="93.858,407.349 90.161,404.335 90.096,402.822 87.783,405.505 91.49,410.448 							
								"/>
						</g>
					</g>
					
						<text transform="matrix(1 0 0 1 66.2754 432.1865)" style="fill:#58595B; font-family:'Montserrat-Bold'; font-size:6.2505px;">YOUR TEXT HERE</text>
					
						<text transform="matrix(1 0 0 1 76.0078 440.8291)" style="fill:#FFFFFF; font-family:'Montserrat-Regular'; font-size:4.3753px;">JOB POSITION</text>
				</g>
			</g>
		</g>
		<g>
			<g>
				<rect x="373.001" y="337.035" style="fill:#FF006C;" width="4" height="23.887"/>
			</g>
			<g>
				<g>
					<rect x="344.589" y="324.223" style="fill:#FF006C;" width="60.823" height="8.494"/>
					<path style="fill:#FF006C;" d="M375.001,304.243c-21.692,0-39.34-17.647-39.34-39.339c0-21.692,17.647-39.34,39.34-39.34
						c21.691,0,39.339,17.648,39.339,39.34C414.34,286.596,396.692,304.243,375.001,304.243z"/>
					<path style="fill:#FF88C7;" d="M375.001,298.573c-18.565,0-33.669-15.104-33.669-33.669c0-18.565,15.104-33.669,33.669-33.669
						c18.565,0,33.669,15.104,33.669,33.669C408.67,283.469,393.566,298.573,375.001,298.573z"/>
					<g>
						<defs>
							<path id="SVGID_00000074442953655548131510000001893376719310903185_" d="M375.001,298.573
								c-18.565,0-33.669-15.104-33.669-33.669c0-18.565,15.104-33.669,33.669-33.669c18.565,0,33.669,15.104,33.669,33.669
								C408.67,283.469,393.566,298.573,375.001,298.573z"/>
						</defs>
						<clipPath id="SVGID_00000162350221032939616100000017012740033143529656_">
							<use xlink:href="#SVGID_00000074442953655548131510000001893376719310903185_"  style="overflow:visible;"/>
						</clipPath>
						<path style="clip-path:url(#SVGID_00000162350221032939616100000017012740033143529656_);fill:#4D3101;" d="M375.001,241
							c5.166-1.669,13.91,2.941,17.328,10.095c3.418,7.154,2.862,26.788,2.623,27.741c-0.238,0.954-19.951,1.431-19.951,1.431V241z"
							/>
						<path style="clip-path:url(#SVGID_00000162350221032939616100000017012740033143529656_);fill:#4D3101;" d="M375.001,241
							c-5.166-1.669-13.91,2.941-17.328,10.095c-3.418,7.154-2.862,26.788-2.623,27.741c0.238,0.954,19.951,1.431,19.951,1.431V241z
							"/>
						<path style="clip-path:url(#SVGID_00000162350221032939616100000017012740033143529656_);fill:#F4B298;" d="M403.176,295.451
							c-0.381-2.005-0.952-4.145-1.833-6.065c-0.88-1.916-2.082-3.629-3.732-4.672c-3.19-2.008-6.984-2.833-10.22-3.381
							c-1.617-0.272-3.096-0.472-4.27-0.697c-0.586-0.112-1.097-0.231-1.5-0.361c-0.402-0.127-0.698-0.276-0.832-0.384l-0.002-0.001
							l-0.083-0.117c-0.059-0.112-0.127-0.334-0.168-0.624c-0.043-0.289-0.063-0.641-0.063-1.009c0-0.686,0.068-1.425,0.139-1.983
							c0.035-0.279,0.07-0.513,0.096-0.675l0.031-0.186l0.01-0.059l0.48-2.59l-1.7,1.635c-1.58,1.527-3.241,2.358-4.528,2.349
							c-1.29,0.009-2.938-0.811-4.518-2.347l-1.699-1.644l0.476,2.595l0.01,0.059c0.051,0.29,0.264,1.636,0.262,2.841
							c0.001,0.492-0.037,0.958-0.112,1.28c-0.036,0.161-0.081,0.285-0.119,0.361l-0.082,0.116
							c-0.133,0.108-0.428,0.257-0.831,0.384c-0.707,0.229-1.736,0.417-2.942,0.608c-3.631,0.586-8.87,1.2-13.048,3.831
							c-1.651,1.042-2.855,2.755-3.736,4.671c-1.321,2.88-1.952,6.256-2.275,8.927c-0.32,2.67-0.32,4.636-0.32,4.668v0.945h57.865
							v-0.945C403.933,302.936,403.935,299.459,403.176,295.451z"/>
						<path style="clip-path:url(#SVGID_00000162350221032939616100000017012740033143529656_);fill:#FFC8AF;" d="M381.759,275.756
							l-0.014,0.011c0,0-0.001,0.001-0.002,0.001L381.759,275.756z M385.479,247.092c-2.512-3.365-6.183-5.517-10.478-5.511
							c-4.29-0.006-7.961,2.147-10.475,5.511c-2.523,3.367-3.955,7.94-3.957,12.959c0,3.344,0.904,6.47,2.313,9.156
							c1.41,2.687,3.323,4.94,5.388,6.563c2.181,1.708,4.523,2.742,6.731,2.751c2.211-0.009,4.558-1.054,6.739-2.749l0.005-0.004
							c2.064-1.628,3.973-3.884,5.379-6.57c1.406-2.686,2.306-5.808,2.307-9.147C389.43,255.032,388.001,250.458,385.479,247.092z"
							/>
						<path style="clip-path:url(#SVGID_00000162350221032939616100000017012740033143529656_);fill:#4D3101;" d="M375,251.784
							c2.173,3.55,12.665,9.062,12.665,9.062v11.87c0,0,3.55-3.392,4.292-10.546c0.742-7.154-4.239-15.633-4.239-15.633
							l-8.108-4.981l-4.61-0.318V251.784z"/>
						<path style="clip-path:url(#SVGID_00000162350221032939616100000017012740033143529656_);fill:#4D3101;" d="M375,251.784
							c-2.173,3.55-12.665,9.062-12.665,9.062v11.87c0,0-3.55-3.392-4.292-10.546c-0.742-7.154,4.239-15.633,4.239-15.633
							l8.108-4.981l4.61-0.318V251.784z"/>
						<g style="clip-path:url(#SVGID_00000162350221032939616100000017012740033143529656_);">
							<path style="fill:#DCE8EF;" d="M375.954,283.103L375,288.534v12.639c0,0,16.812-2.226,21.859-5.763
								c5.048-3.537,4.412-7.75,4.412-7.75s-2.529-3.132-4.253-3.935c-5.803-2.703-14.096-3.233-14.096-3.233L375.954,283.103z"/>
							<polygon style="fill:#F0F5F7;" points="375.954,283.103 380.473,278.139 380.535,276.868 383.823,280.506 379.69,287.7 
															"/>
							<path style="fill:#03254E;" d="M383.823,280.506l-4.372,23.568c0,0,6.757,0.636,13.235-0.835
								c6.478-1.47,10.81-14.984,10.81-14.984s-1.749-3.299-6.478-4.889c-4.73-1.59-14.154-3.922-14.154-3.922L383.823,280.506z"/>
						</g>
						<g style="clip-path:url(#SVGID_00000162350221032939616100000017012740033143529656_);">
							<path style="fill:#DCE8EF;" d="M374.046,283.103l0.954,5.432v12.639c0,0-16.812-2.226-21.859-5.763
								c-5.048-3.537-4.412-7.75-4.412-7.75s2.529-3.132,4.253-3.935c5.803-2.703,14.096-3.233,14.096-3.233L374.046,283.103z"/>
							<polygon style="fill:#F0F5F7;" points="374.046,283.103 369.527,278.139 369.465,276.868 366.177,280.506 370.31,287.7 
															"/>
							<path style="fill:#03254E;" d="M366.177,280.506l4.372,23.568c0,0-6.757,0.636-13.235-0.835
								c-6.478-1.47-10.81-14.984-10.81-14.984s1.749-3.299,6.478-4.889c4.73-1.59,14.154-3.922,14.154-3.922L366.177,280.506z"/>
						</g>
					</g>
					
						<text transform="matrix(1 0 0 1 334.7461 318.5723)" style="fill:#58595B; font-family:'Montserrat-Bold'; font-size:8.8462px;">YOUR TEXT HERE</text>
					
						<text transform="matrix(1 0 0 1 348.5186 330.4863)" style="fill:#FFFFFF; font-family:'Montserrat-Regular'; font-size:6.1923px;">JOB POSITION</text>
				</g>
			</g>
			<g>
				<g>
					<rect x="353.512" y="436.404" style="fill:#FC7808;" width="42.976" height="6.002"/>
					<path style="fill:#FC7808;" d="M375,422.286c-15.327,0-27.796-12.469-27.796-27.796c0-15.327,12.469-27.796,27.796-27.796
						c15.327,0,27.796,12.469,27.796,27.796C402.796,409.817,390.327,422.286,375,422.286z"/>
					<path style="fill:#FCB960;" d="M375,418.28c-13.118,0-23.79-10.672-23.79-23.789c0-13.118,10.672-23.79,23.79-23.79
						c13.118,0,23.789,10.672,23.789,23.79C398.79,407.608,388.118,418.28,375,418.28z"/>
					<g>
						<defs>
							<path id="SVGID_00000135651613939649094460000007288563429782251673_" d="M375,418.28c-13.118,0-23.79-10.672-23.79-23.789
								c0-13.118,10.672-23.79,23.79-23.79c13.118,0,23.789,10.672,23.789,23.79C398.79,407.608,388.118,418.28,375,418.28z"/>
						</defs>
						<clipPath id="SVGID_00000026877680969729061480000008488935891812842625_">
							<use xlink:href="#SVGID_00000135651613939649094460000007288563429782251673_"  style="overflow:visible;"/>
						</clipPath>
						<path style="clip-path:url(#SVGID_00000026877680969729061480000008488935891812842625_);fill:#F4B298;" d="M398.462,416.074
							c-0.318-1.417-0.793-2.929-1.526-4.286c-0.733-1.354-1.734-2.564-3.108-3.301c-2.656-1.419-5.815-2.002-8.511-2.389
							c-1.347-0.192-2.578-0.334-3.556-0.492c-0.488-0.079-0.913-0.163-1.249-0.255c-0.335-0.09-0.581-0.195-0.692-0.272
							l-0.001-0.001l-0.069-0.083c-0.049-0.079-0.105-0.236-0.14-0.441c-0.036-0.204-0.053-0.453-0.052-0.713
							c0-0.485,0.057-1.007,0.116-1.401c0.029-0.197,0.058-0.363,0.08-0.477l0.026-0.132l0.009-0.041l0.4-1.83l-1.416,1.155
							c-1.316,1.079-2.699,1.666-3.77,1.66c-1.074,0.006-2.447-0.573-3.762-1.658l-1.414-1.161l0.396,1.833l0.008,0.041
							c0.043,0.205,0.22,1.156,0.218,2.007c0.001,0.347-0.031,0.677-0.093,0.905c-0.03,0.114-0.067,0.201-0.099,0.255l-0.068,0.082
							c-0.111,0.076-0.357,0.182-0.692,0.271c-0.589,0.161-1.446,0.294-2.45,0.43c-3.024,0.414-7.386,0.848-10.865,2.707
							c-1.375,0.736-2.378,1.947-3.112,3.301c-1.1,2.035-1.626,4.42-1.894,6.307c-0.266,1.887-0.266,3.276-0.267,3.298v0.668h48.187
							v-0.668C399.093,421.363,399.095,418.906,398.462,416.074z"/>
						<path style="clip-path:url(#SVGID_00000026877680969729061480000008488935891812842625_);fill:#FFC8AF;" d="M379.776,402.159
							l-0.01,0.008c0,0-0.001,0.001-0.001,0.001L379.776,402.159z M382.404,381.905c-1.775-2.377-4.369-3.898-7.404-3.894
							c-3.031-0.004-5.625,1.517-7.401,3.894c-1.783,2.379-2.794,5.61-2.796,9.157c0,2.363,0.639,4.571,1.634,6.469
							c0.996,1.898,2.348,3.491,3.807,4.637c1.541,1.207,3.196,1.938,4.756,1.944c1.562-0.007,3.22-0.745,4.761-1.942l0.004-0.003
							c1.458-1.15,2.807-2.744,3.801-4.642c0.993-1.898,1.63-4.104,1.63-6.463C385.195,387.515,384.186,384.284,382.404,381.905z"/>
						<path style="clip-path:url(#SVGID_00000026877680969729061480000008488935891812842625_);fill:#4D3101;" d="M383.873,378.631
							c-0.442-0.496-1.841-0.39-1.841-0.39s-0.69-1.825-1.342-2.132c-1.516-0.713-3.422-1.131-5.809-1.131
							c-16.368,0-9.96,18.23-9.96,18.23c-0.009-0.209-0.015-0.411-0.017-0.595c0,0,0.392-4.266,3.494-6.836l-1.112,2.607
							c0,0,10.026-2.064,13.135-6.523c1.703,2.396,4.121,6.646,4.548,10.806c-0.002,0.169-0.008,0.352-0.016,0.541
							C384.953,393.208,388.742,384.093,383.873,378.631z"/>
						<g style="clip-path:url(#SVGID_00000026877680969729061480000008488935891812842625_);">
							<path style="fill:#C3D3DD;" d="M390.473,406.713c-2.05-0.562-6.29-1.039-8.537-1.207l-6.075,1.844L375,411.112v8.855
								l5.866-0.437l3.008,2.543l9.239-6.01l2.977-7.329C396.089,408.735,392.523,407.274,390.473,406.713z"/>
							<polygon style="fill:#F0F5F7;" points="375.861,407.349 379.558,404.335 379.622,402.822 381.936,405.505 378.229,410.448 
															"/>
						</g>
						<g style="clip-path:url(#SVGID_00000026877680969729061480000008488935891812842625_);">
							<path style="fill:#C3D3DD;" d="M359.527,406.713c2.05-0.562,6.29-1.039,8.537-1.207l6.075,1.844l0.861,3.763v8.855
								l-5.866-0.437l-3.008,2.543l-9.239-6.01l-2.977-7.329C353.911,408.735,357.477,407.274,359.527,406.713z"/>
							<polygon style="fill:#F0F5F7;" points="374.139,407.349 370.443,404.335 370.378,402.822 368.064,405.505 371.771,410.448 
															"/>
						</g>
					</g>
					
						<text transform="matrix(1 0 0 1 346.5566 431.8564)" style="fill:#58595B; font-family:'Montserrat-Bold'; font-size:6.2505px;">YOUR TEXT HERE</text>
					
						<text transform="matrix(1 0 0 1 356.2891 440.8291)" style="fill:#FFFFFF; font-family:'Montserrat-Regular'; font-size:4.3753px;">JOB POSITION</text>
				</g>
			</g>
		</g>
		<g>
			<text transform="matrix(1 0 0 1 253.0562 53.7859)" style="fill:#58595B; font-family:'Montserrat-Bold'; font-size:19.9383px;">ORGANIZATION CHART</text>
			
				<text transform="matrix(1 0 0 1 301.0854 71.3205)" style="fill:#939598; font-family:'Montserrat-Regular'; font-size:13.9568px;">MODERN TEMPLATE</text>
		</g>
	</g>
</g>
</svg>
